<?xml version="1.0" encoding="utf-8"?>
<!-- Generator: Adobe Illustrator 21.0.0, SVG Export Plug-In . SVG Version: 6.00 Build 0)  -->
<svg version="1.1" id="Layer_1" xmlns="http://www.w3.org/2000/svg" xmlns:xlink="http://www.w3.org/1999/xlink" x="0px" y="0px"
	 viewBox="0 0 61 61" style="enable-background:new 0 0 61 61;" xml:space="preserve">
<style type="text/css">
	.st0{fill:#455A64;stroke:#424242;stroke-linecap:round;stroke-linejoin:round;stroke-miterlimit:10;}
	.st1{fill:none;stroke:#546E7A;stroke-linecap:round;stroke-linejoin:round;stroke-miterlimit:10;}
	.st2{fill:#546E7A;stroke:#424242;stroke-linecap:round;stroke-linejoin:round;stroke-miterlimit:10;}
	.st3{fill:none;stroke:#78909C;stroke-linecap:round;stroke-linejoin:round;stroke-miterlimit:10;}
	.st4{fill:none;stroke:#455A64;stroke-linecap:round;stroke-linejoin:round;stroke-miterlimit:10;}
	.st5{fill:#FFA726;stroke:#424242;stroke-linecap:round;stroke-linejoin:round;stroke-miterlimit:10;}
	.st6{fill:none;stroke:#FB8C00;stroke-linecap:round;stroke-linejoin:round;stroke-miterlimit:10;}
	.st7{fill:none;stroke:#FFCC80;stroke-linecap:round;stroke-linejoin:round;stroke-miterlimit:10;}
	.st8{fill:#CFD8DC;stroke:#424242;stroke-linecap:round;stroke-linejoin:round;stroke-miterlimit:10;}
	.st9{fill:none;stroke:#ECEFF1;stroke-linecap:round;stroke-linejoin:round;stroke-miterlimit:10;}
	.st10{fill:none;stroke:#B0BEC5;stroke-linecap:round;stroke-linejoin:round;stroke-miterlimit:10;}
	.st11{fill:none;stroke:#424242;stroke-linecap:round;stroke-linejoin:round;stroke-miterlimit:10;}
	.st12{fill:#EC407A;stroke:#424242;stroke-linecap:round;stroke-linejoin:round;stroke-miterlimit:10;}
	.st13{fill:none;stroke:#F48FB1;stroke-linecap:round;stroke-linejoin:round;stroke-miterlimit:10;}
	.st14{fill:none;stroke:#D81B60;stroke-linecap:round;stroke-linejoin:round;stroke-miterlimit:10;}
	.st15{fill:#ECEFF1;stroke:#424242;stroke-linecap:round;stroke-linejoin:round;stroke-miterlimit:10;}
	.st16{fill:#26C6DA;stroke:#424242;stroke-linecap:round;stroke-linejoin:round;stroke-miterlimit:10;}
	.st17{fill:none;stroke:#00ACC1;stroke-linecap:round;stroke-linejoin:round;stroke-miterlimit:10;}
	.st18{fill:none;stroke:#80DEEA;stroke-linecap:round;stroke-linejoin:round;stroke-miterlimit:10;}
	.st19{fill:#B0BEC5;stroke:#424242;stroke-linecap:round;stroke-linejoin:round;stroke-miterlimit:10;}
	.st20{fill:none;stroke:#CFD8DC;stroke-linecap:round;stroke-linejoin:round;stroke-miterlimit:10;}
	.st21{fill:#E0E0E0;stroke:#424242;stroke-linecap:round;stroke-linejoin:round;stroke-miterlimit:10;}
	.st22{fill:#F57F17;stroke:#424242;stroke-linecap:round;stroke-linejoin:round;stroke-miterlimit:10;}
	.st23{fill:none;stroke:#F57F17;stroke-linecap:round;stroke-linejoin:round;stroke-miterlimit:10;}
	.st24{fill:#FB8C00;stroke:#424242;stroke-miterlimit:10;}
	.st25{fill:none;stroke:#0097A7;stroke-linecap:round;stroke-linejoin:round;stroke-miterlimit:10;}
	.st26{fill:#26C6DA;stroke:#0097A7;stroke-linecap:round;stroke-linejoin:round;stroke-miterlimit:10;}
	.st27{fill:none;stroke:#90A4AE;stroke-linecap:round;stroke-linejoin:round;stroke-miterlimit:10;}
	.st28{fill:#CFD8DC;}
	.st29{fill:none;stroke:#424242;stroke-linecap:round;stroke-linejoin:round;}
	.st30{fill:none;stroke:#424242;stroke-linecap:round;stroke-linejoin:round;stroke-dasharray:4.0714,4.0714;}
	.st31{fill:#90A4AE;stroke:#424242;stroke-linecap:round;stroke-linejoin:round;stroke-miterlimit:10;}
	.st32{fill:none;stroke:#78909C;stroke-linecap:round;stroke-miterlimit:10;}
	.st33{fill:none;stroke:#455A64;stroke-linecap:round;stroke-miterlimit:10;}
	.st34{fill:#78909C;stroke:#424242;stroke-linecap:round;stroke-linejoin:round;stroke-miterlimit:10;}
	.st35{fill:none;stroke:#546E7A;stroke-linecap:round;stroke-miterlimit:10;}
	.st36{fill:none;stroke:#FFA726;stroke-linecap:round;stroke-linejoin:round;stroke-miterlimit:10;}
	.st37{fill:#4DD0E1;stroke:#424242;stroke-linecap:round;stroke-linejoin:round;stroke-miterlimit:10;}
	.st38{fill:#00ACC1;stroke:#424242;stroke-linecap:round;stroke-linejoin:round;stroke-miterlimit:10;}
	.st39{fill:#D81B60;stroke:#424242;stroke-linecap:round;stroke-linejoin:round;stroke-miterlimit:10;}
	.st40{fill:none;stroke:#C2185B;stroke-linecap:round;stroke-linejoin:round;stroke-miterlimit:10;}
	.st41{fill:#FB8C00;stroke:#424242;stroke-linecap:round;stroke-linejoin:round;stroke-miterlimit:10;}
	.st42{fill:none;stroke:#37474F;stroke-linecap:round;stroke-linejoin:round;stroke-miterlimit:10;}
	.st43{fill:#B0BEC5;stroke:#424242;stroke-miterlimit:10;}
	.st44{fill:#37474F;stroke:#424242;stroke-linecap:round;stroke-linejoin:round;stroke-miterlimit:10;}
	.st45{fill:#F5F5F5;stroke:#424242;stroke-linecap:round;stroke-linejoin:round;stroke-miterlimit:10;}
	.st46{fill:none;stroke:#FAFAFA;stroke-linecap:round;stroke-linejoin:round;stroke-miterlimit:10;}
	.st47{fill:#F06292;stroke:#424242;stroke-linecap:round;stroke-linejoin:round;stroke-miterlimit:10;}
	.st48{fill:#F48FB1;stroke:#424242;stroke-linecap:round;stroke-linejoin:round;stroke-miterlimit:10;}
</style>
<g id="Camcorder">
	<path class="st0" d="M57.5,27.2H41.8c-0.6,0-1-0.4-1-1v-13c0-0.6,0.4-1,1-1h15.7c0.6,0,1,0.4,1,1v13C58.5,26.8,58.1,27.2,57.5,27.2
		z"/>
	<path class="st0" d="M31.8,31.5H7.3c-2.8,0-5-2.2-5-5v-21c0-2.8,2.2-5,5-5h24.5V31.5z"/>
	<path class="st1" d="M7.3,29c-1.4,0-2.5-1.1-2.5-2.5V17"/>
	<path class="st8" d="M24.9,44h-8c-0.8,0-1.5-0.7-1.5-1.5l0,0c0-0.8,0.7-1.5,1.5-1.5h8c0.8,0,1.5,0.7,1.5,1.5l0,0
		C26.4,43.3,25.8,44,24.9,44z"/>
	<path class="st19" d="M22.9,44h-8c-0.8,0-1.5-0.7-1.5-1.5l0,0c0-0.8,0.7-1.5,1.5-1.5h8c0.8,0,1.5,0.7,1.5,1.5l0,0
		C24.4,43.3,23.8,44,22.9,44z"/>
	<path class="st2" d="M59.5,27.2H43.8c-0.6,0-1-0.4-1-1v-13c0-0.6,0.4-1,1-1h15.7c0.6,0,1,0.4,1,1v13C60.5,26.8,60.1,27.2,59.5,27.2
		z"/>
	<path class="st0" d="M32,15.5H8c-4.1,0-7.5-3.4-7.5-7.5v0c0-4.1,3.4-7.5,7.5-7.5h24c4.1,0,7.5,3.4,7.5,7.5v0
		C39.5,12.1,36.1,15.5,32,15.5z"/>
	<path class="st1" d="M3,8c0-2.8,2.2-5,5-5"/>
	<rect x="37.8" y="17.2" class="st2" width="5" height="5"/>
	<rect x="17.9" y="31.5" class="st8" width="4" height="9.5"/>
	<path class="st19" d="M18,24.5h-8c-1.1,0-2-0.9-2-2v0c0-1.1,0.9-2,2-2h8c1.1,0,2,0.9,2,2v0C20,23.6,19.1,24.5,18,24.5z"/>
	<path class="st2" d="M37.8,8h-12v18.5c0,2.8,2.2,5,5,5h2c2.8,0,5-2.2,5-5V8z"/>
	<path class="st3" d="M28.3,26.5V17"/>
	<path class="st4" d="M35.8,26.5V17"/>
	<path class="st3" d="M44.8,25.5V14"/>
	<path class="st4" d="M58.5,25.5V14"/>
	<g>
		<circle class="st16" cx="32" cy="8" r="7.5"/>
		<circle class="st16" cx="32" cy="8" r="4"/>
	</g>
	<circle class="st19" cx="32" cy="27" r="1.5"/>
	<polyline class="st11" points="43.8,27.2 51.6,19.8 60.5,19.8 	"/>
	<path class="st2" d="M27.4,34.5h-11c-0.8,0-1.5-0.7-1.5-1.5l0,0c0-0.8,0.7-1.5,1.5-1.5h11c0.8,0,1.5,0.7,1.5,1.5l0,0
		C28.9,33.8,28.3,34.5,27.4,34.5z"/>
	<path class="st0" d="M23.4,34.5h-11c-0.8,0-1.5-0.7-1.5-1.5l0,0c0-0.8,0.7-1.5,1.5-1.5h11c0.8,0,1.5,0.7,1.5,1.5l0,0
		C24.9,33.8,24.3,34.5,23.4,34.5z"/>
	<polygon class="st8" points="9.9,60.5 5.9,60.5 13.9,44 17.9,44 	"/>
	<polygon class="st8" points="29.9,60.5 33.9,60.5 25.9,44 21.9,44 	"/>
	<rect x="17.9" y="44" class="st8" width="4" height="16.5"/>
</g>
</svg>
